<svg xmlns="http://www.w3.org/2000/svg" xmlns:svg="http://www.w3.org/2000/svg" id="svg7384" width="16" height="16" version="1.1"><metadata id="metadata90"/><title id="title9167">Gnome Symbolic Icon Theme</title><g id="layer9" transform="translate(-43.0002,-175)" style="display:inline"><path id="path1234" d="m 45.812895,176 a 1.0000999,1.0000999 0 0 0 -0.8125,1 l 0,13 a 1.0000999,1.0000999 0 0 0 1,1 l 10,0 a 1.0000999,1.0000999 0 0 0 1,-1 l 0,-9.4375 a 1.0000999,1.0000999 0 0 0 -0.28125,-0.71875 l -3.5625,-3.5625 A 1.0000999,1.0000999 0 0 0 52.437895,176 l -6.4375,0 a 1.0000999,1.0000999 0 0 0 -0.0937,0 1.0000999,1.0000999 0 0 0 -0.0937,0 z m 1.1875,2 5,0 0,3 3,0 0,8 -8,0 0,-11 z" style="font-size:medium;font-style:normal;font-variant:normal;font-weight:400;font-stretch:normal;text-indent:0;text-align:start;text-decoration:none;line-height:normal;letter-spacing:normal;word-spacing:normal;text-transform:none;direction:ltr;block-progression:tb;writing-mode:lr-tb;text-anchor:start;baseline-shift:baseline;color:#000;fill:#bebebe;fill-opacity:1;stroke:none;stroke-width:1.99999988;marker:none;visibility:visible;display:inline;overflow:visible;enable-background:accumulate;font-family:Sans;-inkscape-font-specification:Sans"/><path id="path3095" d="m 50,176.5625 0,4.625 -0.53125,0.53125 -0.53125,-0.46875 0,-2.3125 -1,0 0,2.5625 0,0.21875 0.15625,0.15625 1.03125,0.90625 0.375,0.3125 0.3125,-0.34375 1.03125,-1.03125 0.15625,-0.125 0,-0.21875 0,-4.8125 -1,0 z" style="font-size:medium;font-style:normal;font-variant:normal;font-weight:400;font-stretch:normal;text-indent:0;text-align:start;text-decoration:none;line-height:normal;letter-spacing:normal;word-spacing:normal;text-transform:none;direction:ltr;block-progression:tb;writing-mode:lr-tb;text-anchor:start;baseline-shift:baseline;color:#000;fill:#bebebe;fill-opacity:1;stroke:none;stroke-width:.99999976;marker:none;visibility:visible;display:inline;overflow:visible;enable-background:new;font-family:Sans;-inkscape-font-specification:Sans"/><path id="path3867" d="m 53,180.375 0,3.625 -6.4375,0 0,1 6.9375,0 0.5,0 0,-0.5 0,-4.125 -1,0 z" style="font-size:medium;font-style:normal;font-variant:normal;font-weight:400;font-stretch:normal;text-indent:0;text-align:start;text-decoration:none;line-height:normal;letter-spacing:normal;word-spacing:normal;text-transform:none;direction:ltr;block-progression:tb;writing-mode:lr-tb;text-anchor:start;baseline-shift:baseline;color:#000;fill:#bebebe;fill-opacity:1;stroke:none;stroke-width:.99999976;marker:none;visibility:visible;display:inline;overflow:visible;enable-background:new;font-family:Sans;-inkscape-font-specification:Sans"/></g></svg>