<?xml version="1.0" encoding="UTF-8" standalone="no"?>
<svg
   xmlns:dc="http://purl.org/dc/elements/1.1/"
   xmlns:cc="http://creativecommons.org/ns#"
   xmlns:rdf="http://www.w3.org/1999/02/22-rdf-syntax-ns#"
   xmlns:svg="http://www.w3.org/2000/svg"
   xmlns="http://www.w3.org/2000/svg"
   xmlns:xlink="http://www.w3.org/1999/xlink"
   viewBox="0 0 128 128"
   style="display:inline;enable-background:new"
   version="1.0"
   id="svg11300"
   height="128"
   width="128">
  <title
     id="title4162">Adwaita Icon Template</title>
  <defs
     id="defs3">
    <linearGradient
       id="linearGradient983">
      <stop
         id="stop978"
         offset="0"
         style="stop-color:#edece9;stop-opacity:1" />
      <stop
         id="stop980"
         offset="1"
         style="stop-color:#ffffff;stop-opacity:1" />
    </linearGradient>
    <linearGradient
       gradientUnits="userSpaceOnUse"
       y2="208.05914"
       x2="480"
       y1="208.05914"
       x1="31.999994"
       id="linearGradient5009-8"
       xlink:href="#linearGradient5007-2"
       gradientTransform="translate(-31.999994,-180.11827)" />
    <linearGradient
       id="linearGradient5007-2">
      <stop
         id="stop5003-2"
         offset="0"
         style="stop-color:#2dc0af;stop-opacity:1;" />
      <stop
         style="stop-color:#2dc0af;stop-opacity:0.94901961;"
         offset="0.41629466"
         id="stop5011-9" />
      <stop
         id="stop5017"
         offset="0.43861607"
         style="stop-color:#1f8277;stop-opacity:0.94509804" />
      <stop
         id="stop5013-0"
         offset="0.58147323"
         style="stop-color:#26a193;stop-opacity:0.92941177" />
      <stop
         style="stop-color:#2dc0af;stop-opacity:0.9254902;"
         offset="0.60379463"
         id="stop5015-7" />
      <stop
         id="stop5005-3"
         offset="1"
         style="stop-color:#2dc0af;stop-opacity:0.88796681" />
    </linearGradient>
    <linearGradient
       id="linearGradient1831">
      <stop
         style="stop-color:#d5d4cf;stop-opacity:1"
         offset="0"
         id="stop1825" />
      <stop
         id="stop1827"
         offset="0.5"
         style="stop-color:#ffffff;stop-opacity:1" />
      <stop
         style="stop-color:#c8c6c0;stop-opacity:1"
         offset="1"
         id="stop1829" />
    </linearGradient>
    <linearGradient
       id="linearGradient1259">
      <stop
         style="stop-color:#f6f5f4;stop-opacity:1"
         offset="0"
         id="stop1253" />
      <stop
         id="stop1255"
         offset="0.5"
         style="stop-color:#ffffff;stop-opacity:1" />
      <stop
         style="stop-color:#dddbd8;stop-opacity:1"
         offset="1"
         id="stop1257" />
    </linearGradient>
    <clipPath
       id="clipPath1341"
       clipPathUnits="userSpaceOnUse">
      <path
         style="fill:#e74747;stroke:none;stroke-width:1px;stroke-linecap:butt;stroke-linejoin:miter;stroke-opacity:1"
         d="M 376,-188 496,-68 V 302 H 23.999995 v -490 z"
         id="path1343" />
    </clipPath>
    <clipPath
       id="clipPath2019-7"
       clipPathUnits="userSpaceOnUse">
      <path
         id="path2021-5"
         d="M 280,124 400,4 392,-276 H 87.999995 v 400 z"
         style="fill:#e74747;stroke:none;stroke-width:1px;stroke-linecap:butt;stroke-linejoin:miter;stroke-opacity:1" />
    </clipPath>
    <linearGradient
       y2="120"
       x2="416"
       y1="120"
       x1="384"
       gradientTransform="matrix(0.25,0,0,0.25,20,197)"
       gradientUnits="userSpaceOnUse"
       id="linearGradient1017"
       xlink:href="#linearGradient1831" />
    <linearGradient
       gradientTransform="matrix(0.25,0,0,0.25,4.0000001,221)"
       y2="366.06601"
       x2="144"
       y1="-84.000031"
       x1="144"
       gradientUnits="userSpaceOnUse"
       id="linearGradient1019"
       xlink:href="#linearGradient983" />
    <linearGradient
       y2="120"
       x2="416"
       y1="120"
       x1="384"
       gradientTransform="matrix(-0.25,0,0,0.25,172,197)"
       gradientUnits="userSpaceOnUse"
       id="linearGradient1021"
       xlink:href="#linearGradient1259" />
  </defs>
  <metadata
     id="metadata4">
    <rdf:RDF>
      <cc:Work
         rdf:about="">
        <dc:format>image/svg+xml</dc:format>
        <dc:type
           rdf:resource="http://purl.org/dc/dcmitype/StillImage" />
        <dc:creator>
          <cc:Agent>
            <dc:title>GNOME Design Team</dc:title>
          </cc:Agent>
        </dc:creator>
        <dc:source />
        <cc:license
           rdf:resource="http://creativecommons.org/licenses/by-sa/4.0/" />
        <dc:title>Adwaita Icon Template</dc:title>
        <dc:subject>
          <rdf:Bag />
        </dc:subject>
        <dc:date />
        <dc:rights>
          <cc:Agent>
            <dc:title />
          </cc:Agent>
        </dc:rights>
        <dc:publisher>
          <cc:Agent>
            <dc:title />
          </cc:Agent>
        </dc:publisher>
        <dc:identifier />
        <dc:relation />
        <dc:language />
        <dc:coverage />
        <dc:description />
        <dc:contributor>
          <cc:Agent>
            <dc:title />
          </cc:Agent>
        </dc:contributor>
      </cc:Work>
      <cc:License
         rdf:about="http://creativecommons.org/licenses/by-sa/4.0/">
        <cc:permits
           rdf:resource="http://creativecommons.org/ns#Reproduction" />
        <cc:permits
           rdf:resource="http://creativecommons.org/ns#Distribution" />
        <cc:requires
           rdf:resource="http://creativecommons.org/ns#Notice" />
        <cc:requires
           rdf:resource="http://creativecommons.org/ns#Attribution" />
        <cc:permits
           rdf:resource="http://creativecommons.org/ns#DerivativeWorks" />
        <cc:requires
           rdf:resource="http://creativecommons.org/ns#ShareAlike" />
      </cc:License>
    </rdf:RDF>
  </metadata>
  <g
     transform="translate(0,-172)"
     style="display:inline"
     id="layer1">
    <g
       style="display:inline"
       id="layer9">
      <path
         style="display:inline;opacity:1;fill:#5e3f7f;fill-opacity:1;stroke:none;stroke-width:6;stroke-linecap:butt;stroke-linejoin:miter;stroke-miterlimit:4;stroke-dasharray:none;stroke-dashoffset:0;stroke-opacity:1;marker:none;marker-start:none;marker-mid:none;marker-end:none;paint-order:normal;enable-background:new"
         d="m 20,212 c -4.432,0 -8,3.568 -8,8 v 60 c 0,4.432 3.568,8 8,8 h 88 c 4.432,0 8,-3.568 8,-8 v -60 c 0,-4.432 -3.568,-8 -8,-8 z"
         id="path955" />
      <path
         style="display:inline;opacity:1;fill:url(#linearGradient1017);fill-opacity:1;stroke:none;stroke-width:6;stroke-linecap:butt;stroke-linejoin:miter;stroke-miterlimit:4;stroke-dasharray:none;stroke-dashoffset:0;stroke-opacity:1;marker:none;marker-start:none;marker-mid:none;marker-end:none;paint-order:normal;enable-background:new"
         d="M 63.75736,207.39645 64,286 h 44 c 4.432,0 8,-3.568 8,-8 v -62.25 c 0,-4.432 -3.568,-8 -8,-8 z"
         id="path957" />
      <path
         style="display:inline;opacity:1;fill:url(#linearGradient1019);fill-opacity:1;stroke:none;stroke-width:6;stroke-linecap:butt;stroke-linejoin:miter;stroke-miterlimit:4;stroke-dasharray:none;stroke-dashoffset:0;stroke-opacity:1;marker:none;marker-start:none;marker-mid:none;marker-end:none;paint-order:normal;enable-background:new"
         d="m 64,200 v 86 H 20 c -4.432,0 -8,-3.568 -8,-8 v -70 c 0,-4.432 3.568,-8 8,-8 z"
         id="path959" />
      <path
         style="display:inline;opacity:1;fill:url(#linearGradient1021);fill-opacity:1;stroke:none;stroke-width:6;stroke-linecap:butt;stroke-linejoin:miter;stroke-miterlimit:4;stroke-dasharray:none;stroke-dashoffset:0;stroke-opacity:1;marker:none;marker-start:none;marker-mid:none;marker-end:none;paint-order:normal;enable-background:new"
         d="m 71.75736,191.64645 c -4.43179,-0.0432 -8.012452,3.56801 -8,8 L 64,286 c 0,-4.432 3.568,-8 8,-8 h 36 c 4.432,0 8,-3.568 8,-8 v -70 c 0,-4.432 -3.56821,-7.95677 -8,-8 z"
         id="path961" />
      <path
         style="color:#000000;font-style:normal;font-variant:normal;font-weight:normal;font-stretch:normal;font-size:medium;line-height:normal;font-family:sans-serif;font-variant-ligatures:normal;font-variant-position:normal;font-variant-caps:normal;font-variant-numeric:normal;font-variant-alternates:normal;font-feature-settings:normal;text-indent:0;text-align:start;text-decoration:none;text-decoration-line:none;text-decoration-style:solid;text-decoration-color:#000000;letter-spacing:normal;word-spacing:normal;text-transform:none;writing-mode:lr-tb;direction:ltr;text-orientation:mixed;dominant-baseline:auto;baseline-shift:baseline;text-anchor:start;white-space:normal;shape-padding:0;clip-rule:nonzero;display:inline;overflow:visible;visibility:visible;opacity:1;isolation:auto;mix-blend-mode:normal;color-interpolation:sRGB;color-interpolation-filters:linearRGB;solid-color:#000000;solid-opacity:1;fill:#949390;fill-opacity:1;fill-rule:nonzero;stroke:none;stroke-width:4;stroke-linecap:butt;stroke-linejoin:miter;stroke-miterlimit:4;stroke-dasharray:none;stroke-dashoffset:0;stroke-opacity:1;color-rendering:auto;image-rendering:auto;shape-rendering:auto;text-rendering:auto;enable-background:accumulate"
         d="m 46.224654,248.61719 c -2.164063,2.11147 -4.164063,1.49223 -5.281295,0.37504 L 30.029344,238.07861 V 184 h 4 v 52.42138 z"
         id="path967" />
      <path
         id="path1064"
         d="m 26,185 c -1.042772,0.20855 -2,0.82751 -2,2 v 8.8457 24.3086 V 221 c 0,0 0.0019,1.57808 0.994141,2.75195 -0.916096,0.52464 -1.695441,1.29889 -2.228516,2.26563 -1.020765,1.85117 -1.020765,4.11367 0,5.96484 0.531602,0.96407 1.307911,1.73713 2.220703,2.26172 C 24.420279,234.83633 24,235.70649 24,237 v 0.8457 24.3086 V 271 c 0,0.88001 0.905333,2 2,2 h 8 l -10e-7,-1 L 32,267 h 5.154297 C 39.82107,267 42,264.82107 42,262.1543 V 237.8457 C 42,235.17893 39.82107,233 37.154297,233 H 32 28.845703 28 c 0,0 -0.07682,0.008 -0.08594,0.008 C 27.86872,233.002 27.82305,233 27.777344,233 c -1.333727,0 -2.574414,-0.73953 -3.259766,-1.98242 -0.685352,-1.2429 -0.685352,-2.79226 0,-4.03516 C 25.20293,225.73953 26.443617,225 27.777344,225 c 0.0398,3.7e-4 0.07958,-0.002 0.11914,-0.006 C 27.932599,224.99481 27.963212,225 28,225 H 28.845703 32 37.154297 C 39.82107,225 42,222.82107 42,220.1543 V 195.8457 C 42,193.17893 39.82107,191 37.154297,191 H 32 v -4 c 0,-2 2,-2 2,-2 l 0.02934,-1 H 31 Z m 2.845703,8 H 32 37.154297 C 38.747665,193 40,194.25234 40,195.8457 v 24.3086 C 40,221.74766 38.747665,223 37.154297,223 H 32 28.845703 c -0.0342,0 -0.06573,-0.009 -0.09961,-0.01 -0.436241,-0.0256 -0.730469,-0.32635 -0.730469,-0.77539 v -28.42968 c 0,-0.44904 0.294228,-0.74984 0.730469,-0.77539 0.03388,-10e-4 0.06541,-0.01 0.09961,-0.01 z m 0,42 h 8.308594 C 38.747665,235 40,236.25234 40,237.8457 v 24.3086 C 40,263.74766 38.747665,265 37.154297,265 H 32 28.845703 c -0.04629,0 -0.08907,-0.0116 -0.134765,-0.0137 C 28.286318,264.9523 28,264.6567 28,264.21484 v -28.42968 c 0,-0.45337 0.300966,-0.71477 0.742188,-0.77539 0.03518,-0.001 0.06798,-0.01 0.103515,-0.01 z"
         style="color:#000000;font-style:normal;font-variant:normal;font-weight:normal;font-stretch:normal;font-size:medium;line-height:normal;font-family:sans-serif;font-variant-ligatures:normal;font-variant-position:normal;font-variant-caps:normal;font-variant-numeric:normal;font-variant-alternates:normal;font-feature-settings:normal;text-indent:0;text-align:start;text-decoration:none;text-decoration-line:none;text-decoration-style:solid;text-decoration-color:#000000;letter-spacing:normal;word-spacing:normal;text-transform:none;writing-mode:lr-tb;direction:ltr;text-orientation:mixed;dominant-baseline:auto;baseline-shift:baseline;text-anchor:start;white-space:normal;shape-padding:0;clip-rule:nonzero;display:inline;overflow:visible;visibility:visible;opacity:0.1;isolation:auto;mix-blend-mode:normal;color-interpolation:sRGB;color-interpolation-filters:linearRGB;solid-color:#000000;solid-opacity:1;vector-effect:none;fill:#000000;fill-opacity:1;fill-rule:nonzero;stroke:none;stroke-width:2;stroke-linecap:round;stroke-linejoin:miter;stroke-miterlimit:4;stroke-dasharray:none;stroke-dashoffset:0;stroke-opacity:1;marker:none;paint-order:normal;color-rendering:auto;image-rendering:auto;shape-rendering:auto;text-rendering:auto;enable-background:accumulate" />
      <path
         style="color:#000000;font-style:normal;font-variant:normal;font-weight:normal;font-stretch:normal;font-size:medium;line-height:normal;font-family:sans-serif;font-variant-ligatures:normal;font-variant-position:normal;font-variant-caps:normal;font-variant-numeric:normal;font-variant-alternates:normal;font-feature-settings:normal;text-indent:0;text-align:start;text-decoration:none;text-decoration-line:none;text-decoration-style:solid;text-decoration-color:#000000;letter-spacing:normal;word-spacing:normal;text-transform:none;writing-mode:lr-tb;direction:ltr;text-orientation:mixed;dominant-baseline:auto;baseline-shift:baseline;text-anchor:start;white-space:normal;shape-padding:0;clip-rule:nonzero;display:inline;overflow:visible;visibility:visible;opacity:1;isolation:auto;mix-blend-mode:normal;color-interpolation:sRGB;color-interpolation-filters:linearRGB;solid-color:#000000;solid-opacity:1;fill:#949390;fill-opacity:1;fill-rule:nonzero;stroke:none;stroke-width:4;stroke-linecap:butt;stroke-linejoin:miter;stroke-miterlimit:4;stroke-dasharray:none;stroke-dashoffset:0;stroke-opacity:1;color-rendering:auto;image-rendering:auto;shape-rendering:auto;text-rendering:auto;enable-background:accumulate"
         d="m 46.195312,207.38281 c -2.164062,-2.11147 -4.164062,-1.49223 -5.281295,-0.37504 L 30,217.92139 V 272 h 4 v -52.42139 z"
         id="path969" />
      <g
         style="display:inline;enable-background:new"
         id="g989"
         transform="matrix(0,0.25,-0.25,0,52.587406,361.875)">
        <path
           style="opacity:1;fill:none;fill-opacity:1;stroke:#5e3f7f;stroke-width:8;stroke-linecap:round;stroke-linejoin:miter;stroke-miterlimit:4;stroke-dasharray:none;stroke-dashoffset:0;stroke-opacity:1;marker:none;marker-start:none;marker-mid:none;marker-end:none;paint-order:normal"
           id="path971"
           d="m -515.49964,99.241791 a 20.00036,19.101946 0 0 1 -10.00018,16.542769 20.00036,19.101946 0 0 1 -20.00036,0 20.00036,19.101946 0 0 1 -10.00018,-16.54277" />
        <rect
           ry="9.0777197"
           rx="9.0777197"
           y="46.349625"
           x="-515.5"
           height="56"
           width="128"
           id="rect973"
           style="opacity:1;fill:#ffffff;fill-opacity:0.4409449;stroke:none;stroke-width:1px;stroke-linecap:butt;stroke-linejoin:miter;stroke-miterlimit:4;stroke-dasharray:none;stroke-dashoffset:0;stroke-opacity:1;marker:none;marker-start:none;marker-mid:none;marker-end:none;paint-order:normal" />
        <rect
           transform="scale(-1,1)"
           style="opacity:1;fill:none;fill-opacity:1;stroke:#5e3f7f;stroke-width:8;stroke-linecap:round;stroke-linejoin:miter;stroke-miterlimit:4;stroke-dasharray:none;stroke-dashoffset:0;stroke-opacity:1;marker:none;marker-start:none;marker-mid:none;marker-end:none;paint-order:normal"
           id="rect981"
           width="128"
           height="63.999996"
           x="387.5"
           y="46.349628"
           rx="15.379571"
           ry="15.379571" />
        <rect
           style="opacity:1;fill:#ffffff;fill-opacity:0.4409449;stroke:none;stroke-width:1px;stroke-linecap:butt;stroke-linejoin:miter;stroke-miterlimit:4;stroke-dasharray:none;stroke-dashoffset:0;stroke-opacity:1;marker:none;marker-start:none;marker-mid:none;marker-end:none;paint-order:normal"
           id="rect983"
           width="128"
           height="56"
           x="-683.5"
           y="46.349625"
           rx="9.0777197"
           ry="9.0777197" />
        <rect
           ry="15.379571"
           rx="15.379571"
           y="46.349628"
           x="555.5"
           height="63.999996"
           width="128"
           id="rect987"
           style="opacity:1;fill:none;fill-opacity:1;stroke:#5e3f7f;stroke-width:8;stroke-linecap:round;stroke-linejoin:miter;stroke-miterlimit:4;stroke-dasharray:none;stroke-dashoffset:0;stroke-opacity:1;marker:none;marker-start:none;marker-mid:none;marker-end:none;paint-order:normal"
           transform="scale(-1,1)" />
        <path
           transform="matrix(0,-4,4,0,-759.5,210.34962)"
           id="path975"
           d="m 26,12 c -1.063423,0 -2,0.827513 -2,2 l -1e-6,34 c 0,0 0,4 4,4 h 4 v -2 h -3.199218 c -0.469055,0 -0.785156,-0.316099 -0.785156,-0.785156 V 20.785156 C 28.015625,20.316099 28.331726,20 28.800781,20 H 32 l -1e-6,-6 c 0,-2 2,-2 2,-2 z m 5.999999,48 h -4 c 0,0 -4,0 -4,4 L 24,98 c 0,0.88001 0.905333,2 2,2 h 7.999998 c 0,0 -2.02022,-1.02e-4 -2,-2 l 10e-7,-6 H 28.785156 C 28.316101,92 28,91.683901 28,91.214844 V 62.785156 C 28,62.316099 28.318566,62.04802 28.785156,62 l 3.214843,-0.125 z"
           style="color:#000000;font-style:normal;font-variant:normal;font-weight:normal;font-stretch:normal;font-size:medium;line-height:normal;font-family:sans-serif;font-variant-ligatures:normal;font-variant-position:normal;font-variant-caps:normal;font-variant-numeric:normal;font-variant-alternates:normal;font-feature-settings:normal;text-indent:0;text-align:start;text-decoration:none;text-decoration-line:none;text-decoration-style:solid;text-decoration-color:#000000;letter-spacing:normal;word-spacing:normal;text-transform:none;writing-mode:lr-tb;direction:ltr;text-orientation:mixed;dominant-baseline:auto;baseline-shift:baseline;text-anchor:start;white-space:normal;shape-padding:0;clip-rule:nonzero;display:inline;overflow:visible;visibility:visible;opacity:1;isolation:auto;mix-blend-mode:normal;color-interpolation:sRGB;color-interpolation-filters:linearRGB;solid-color:#000000;solid-opacity:1;fill:#5e3f7f;fill-opacity:1;fill-rule:nonzero;stroke:none;stroke-width:4;stroke-linecap:round;stroke-linejoin:miter;stroke-miterlimit:4;stroke-dasharray:none;stroke-dashoffset:0;stroke-opacity:1;marker:none;paint-order:normal;color-rendering:auto;image-rendering:auto;shape-rendering:auto;text-rendering:auto;enable-background:accumulate" />
      </g>
    </g>
  </g>
</svg>
